<?xml version="1.0" encoding="UTF-8" standalone="no"?>
<!-- Created with Inkscape (http://www.inkscape.org/) -->

<svg
   width="917.01575"
   height="691.24188"
   viewBox="0 0 917.01575 691.24188"
   version="1.1"
   id="svg1"
   xml:space="preserve"
   xmlns="http://www.w3.org/2000/svg"
   xmlns:svg="http://www.w3.org/2000/svg"><defs
     id="defs1" /><g
     id="layer1"
     transform="translate(-253.78171,-114.32012)"><path
       style="fill:none;stroke:#5eead4;stroke-width:3;stroke-dasharray:none;stroke-opacity:1"
       d="m 636.54909,235.43596 34.42046,-33.96152 h 79.626"
       id="path5" /><path
       style="fill:none;stroke:#5eead4;stroke-width:3;stroke-dasharray:none;stroke-opacity:1"
       d="m 654.21826,305.88318 h 67.4641 l 29.14266,-29.14266 h 69.7588"
       id="path8" /><path
       style="fill:none;stroke:#5eead4;stroke-width:3;stroke-dasharray:none;stroke-opacity:1"
       d="m 653.07091,332.73114 h 106.70343 l 23.52065,23.52065"
       id="path10" /><path
       style="fill:none;stroke:#5eead4;stroke-width:3;stroke-dasharray:none;stroke-opacity:1"
       d="m 625.53454,416.71707 h 41.30455 l 8.26091,8.26091 h 78.9376 l 16.52182,16.52182 h 316.68078"
       id="path13" /><path
       style="fill:none;stroke:#5eead4;stroke-width:3;stroke-dasharray:none;stroke-opacity:1"
       d="m 617.73257,430.02631 16.52182,16.52182 h 84.44487 l 19.96386,19.96387 77.90615,1.02751 0.80198,38.97249 18.93125,18.93126 h 142.15651"
       id="path14" /><path
       style="fill:none;stroke:#5eead4;stroke-width:3;stroke-dasharray:none;stroke-opacity:1"
       d="m 604.25481,205.36058 v -39.59135 l 15.90144,-15.90144 h 84.05048 l 16.71274,16.71274 h 54.68149"
       id="path15" /><path
       style="fill:none;stroke:#5eead4;stroke-width:3;stroke-dasharray:none;stroke-opacity:1"
       d="m 633.46154,473.79808 h 57.76442 l 33.10097,33.10096 v 28.08173 l 42.83653,42.83654 h 89.56731"
       id="path17" /><path
       style="fill:none;stroke:#5eead4;stroke-width:3;stroke-dasharray:none;stroke-opacity:1"
       d="m 579.59135,473.79808 20.76923,20.76923 h 50.625 l 19.14663,19.14663 v 56.79087"
       id="path18" /><path
       style="fill:none;stroke:#5eead4;stroke-width:3;stroke-dasharray:none;stroke-opacity:1"
       d="m 564.01442,484.18269 15.57693,15.57693 v 44.78365 l 18.49759,18.4976"
       id="path19" /><path
       style="fill:none;stroke:#5eead4;stroke-width:3;stroke-dasharray:none;stroke-opacity:1"
       d="m 432.70768,513.09436 v 73.43032 l -22.94697,22.94697 V 771.01836 L 376.71706,804.062 h -79.26367"
       id="path20" /><path
       style="fill:none;stroke:#5eead4;stroke-width:3;stroke-dasharray:none;stroke-opacity:1"
       d="m 530.07512,458.53875 8.49038,8.49038 v 57.13797 l -13.19451,13.19451 v 24.43853"
       id="path22" /><path
       style="fill:none;stroke:#5eead4;stroke-width:3;stroke-dasharray:none;stroke-opacity:1"
       d="m 422.25962,515.33654 -32.12741,32.1274 v 40.56491 l -27.74639,27.74639 v 93.6238"
       id="path25" /><circle
       style="fill:#00dada;fill-opacity:1;stroke:#5eead4;stroke-width:7.4;stroke-dasharray:none;stroke-opacity:1"
       id="path26"
       cx="857.52844"
       cy="578.63483"
       r="3.4420462" /><circle
       style="fill:#00dada;fill-opacity:1;stroke:#5eead4;stroke-width:7.4;stroke-dasharray:none;stroke-opacity:1"
       id="path26-0"
       cx="631.56635"
       cy="473.8085"
       r="3.4420462" /><circle
       style="fill:#00dada;fill-opacity:1;stroke:#5eead4;stroke-width:7.4;stroke-dasharray:none;stroke-opacity:1"
       id="path26-0-5"
       cx="597.61566"
       cy="562.87701"
       r="3.4420462" /><circle
       style="fill:#00dada;fill-opacity:1;stroke:#5eead4;stroke-width:7.4;stroke-dasharray:none;stroke-opacity:1"
       id="path26-0-5-3"
       cx="670.0896"
       cy="571.64001"
       r="3.4420462" /><circle
       style="fill:#00dada;fill-opacity:1;stroke:#5eead4;stroke-width:7.4;stroke-dasharray:none;stroke-opacity:1"
       id="path26-5"
       cx="978.35052"
       cy="525.36414"
       r="3.4420462" /><circle
       style="fill:#00dada;fill-opacity:1;stroke:#5eead4;stroke-width:7.4;stroke-dasharray:none;stroke-opacity:1"
       id="path26-0-5-2"
       cx="525.4176"
       cy="562.78973"
       r="3.4420462" /><circle
       style="fill:#00dada;fill-opacity:1;stroke:#5eead4;stroke-width:7.4;stroke-dasharray:none;stroke-opacity:1"
       id="path26-0-5-2-8"
       cx="548.79877"
       cy="611.32513"
       r="3.4420462" /><circle
       style="fill:#00dada;fill-opacity:1;stroke:#5eead4;stroke-width:7.4;stroke-dasharray:none;stroke-opacity:1"
       id="path26-0-5-2-1"
       cx="362.20923"
       cy="710.97839"
       r="3.4420462" /><circle
       style="fill:#00dada;fill-opacity:1;stroke:#5eead4;stroke-width:7.4;stroke-dasharray:none;stroke-opacity:1"
       id="path26-5-8"
       cx="784.69775"
       cy="357.80432"
       r="3.4420462" /><circle
       style="fill:#00dada;fill-opacity:1;stroke:#5eead4;stroke-width:7.4;stroke-dasharray:none;stroke-opacity:1"
       id="path26-5-8-0"
       cx="751.23883"
       cy="201.68274"
       r="3.4420462" /><circle
       style="fill:#00dada;fill-opacity:1;stroke:#5eead4;stroke-width:7.4;stroke-dasharray:none;stroke-opacity:1"
       id="path26-5-8-0-7"
       cx="819.5824"
       cy="276.80951"
       r="3.4420462" /><circle
       style="fill:#00dada;fill-opacity:1;stroke:#5eead4;stroke-width:7.4;stroke-dasharray:none;stroke-opacity:1"
       id="path26-5-8-0-7-4"
       cx="1087.6554"
       cy="441.38885"
       r="3.4420462" /><circle
       style="fill:#00dada;fill-opacity:1;stroke:#5eead4;stroke-width:7.4;stroke-dasharray:none;stroke-opacity:1"
       id="path26-5-8-0-0"
       cx="774.5918"
       cy="166.79446"
       r="3.4420462" /><path
       d="M 492.90866,114.32012 A 179.9043,179.9043 0 0 1 576.00437,265.95684 179.9043,179.9043 0 0 1 396.10007,445.86114 179.9043,179.9043 0 0 1 253.78171,376.00567 206.52278,206.52278 0 0 0 451.59616,523.19122 206.52278,206.52278 0 0 0 658.1196,316.66778 206.52278,206.52278 0 0 0 492.90866,114.32012 Z"
       id="path2"
       style="fill:#5eead4;fill-opacity:1;stroke-width:3;stroke-dasharray:none" /><path
       style="fill:none;fill-opacity:1;stroke:#5eead4;stroke-width:3;stroke-dasharray:none;stroke-opacity:1"
       d="m 479.6471,515.10137 v 58.41346 l 23.85216,23.85217 h 30.99159 l 13.54867,13.54867"
       id="path27" /></g></svg>
